name Run_30002_GRF.mot
datacolumns 19
datarows 23
range 1.412 1.434
endheader
time	     ground_force_vx	     ground_force_vy	     ground_force_vz	     ground_force_px	     ground_force_py	     ground_force_pz	   l_ground_force_vx	   l_ground_force_vy	   l_ground_force_vz	   l_ground_force_px	   l_ground_force_py	   l_ground_force_pz	     ground_torque_x	     ground_torque_y	     ground_torque_z	   l_ground_torque_x	   l_ground_torque_y	   l_ground_torque_z	
1.412	        105.43500500	       1182.02856400	         12.55880400	          0.86224500	          0.00000000	         -0.31049100	          0.00000000	          0.00000000	          0.00000000	          0.00000000	          0.00000000	          0.00000000	          0.00000000	         -0.15168600	          0.00000000	          0.00000000	          0.00000000	          0.00000000	
1.413	        108.52941100	       1164.39331100	         13.30633100	          0.85987000	          0.00000000	         -0.31063600	          0.00000000	          0.00000000	          0.00000000	          0.00000000	          0.00000000	          0.00000000	          0.00000000	         -0.23592300	          0.00000000	          0.00000000	          0.00000000	          0.00000000	
1.414	        111.47395300	       1146.64196800	         14.03984200	          0.85750400	          0.00000000	         -0.31078300	          0.00000000	          0.00000000	          0.00000000	          0.00000000	          0.00000000	          0.00000000	          0.00000000	         -0.31853200	          0.00000000	          0.00000000	          0.00000000	          0.00000000	
1.415	        114.26734200	       1128.78759800	         14.75715400	          0.85514500	          0.00000000	         -0.31093200	          0.00000000	          0.00000000	          0.00000000	          0.00000000	          0.00000000	          0.00000000	          0.00000000	         -0.39924500	          0.00000000	          0.00000000	          0.00000000	          0.00000000	
1.416	        116.90881300	       1110.84265100	         15.45618400	          0.85279600	          0.00000000	         -0.31108300	          0.00000000	          0.00000000	          0.00000000	          0.00000000	          0.00000000	          0.00000000	          0.00000000	         -0.47780100	          0.00000000	          0.00000000	          0.00000000	          0.00000000	
1.417	        119.39810900	       1092.81933600	         16.13496600	          0.85045500	          0.00000000	         -0.31123600	          0.00000000	          0.00000000	          0.00000000	          0.00000000	          0.00000000	          0.00000000	          0.00000000	         -0.55394800	          0.00000000	          0.00000000	          0.00000000	          0.00000000	
1.418	        121.73540500	       1074.72985800	         16.79166800	          0.84812200	          0.00000000	         -0.31139000	          0.00000000	          0.00000000	          0.00000000	          0.00000000	          0.00000000	          0.00000000	          0.00000000	         -0.62744400	          0.00000000	          0.00000000	          0.00000000	          0.00000000	
1.419	        123.92125700	       1056.58569300	         17.42461800	          0.84579800	          0.00000000	         -0.31154600	          0.00000000	          0.00000000	          0.00000000	          0.00000000	          0.00000000	          0.00000000	          0.00000000	         -0.69805800	          0.00000000	          0.00000000	          0.00000000	          0.00000000	
1.42	        125.95657300	       1038.39807100	         18.03230300	          0.84348300	          0.00000000	         -0.31170400	          0.00000000	          0.00000000	          0.00000000	          0.00000000	          0.00000000	          0.00000000	          0.00000000	         -0.76557300	          0.00000000	          0.00000000	          0.00000000	          0.00000000	
1.421	        127.84259800	       1020.17767300	         18.61340100	          0.84117600	          0.00000000	         -0.31186200	          0.00000000	          0.00000000	          0.00000000	          0.00000000	          0.00000000	          0.00000000	          0.00000000	         -0.82978200	          0.00000000	          0.00000000	          0.00000000	          0.00000000	
1.422	        129.58081100	       1001.93469200	         19.16676700	          0.83887800	          0.00000000	         -0.31202200	          0.00000000	          0.00000000	          0.00000000	          0.00000000	          0.00000000	          0.00000000	          0.00000000	         -0.89049400	          0.00000000	          0.00000000	          0.00000000	          0.00000000	
1.423	        131.17292800	        983.67907700	         19.69145200	          0.83658800	          0.00000000	         -0.31218300	          0.00000000	          0.00000000	          0.00000000	          0.00000000	          0.00000000	          0.00000000	          0.00000000	         -0.94752900	          0.00000000	          0.00000000	          0.00000000	          0.00000000	
1.424	        132.62083400	        965.42028800	         20.18668700	          0.83430700	          0.00000000	         -0.31234400	          0.00000000	          0.00000000	          0.00000000	          0.00000000	          0.00000000	          0.00000000	          0.00000000	         -1.00072600	          0.00000000	          0.00000000	          0.00000000	          0.00000000	
1.425	        133.92649800	        947.16729700	         20.65189900	          0.83203500	          0.00000000	         -0.31250600	          0.00000000	          0.00000000	          0.00000000	          0.00000000	          0.00000000	          0.00000000	          0.00000000	         -1.04993400	          0.00000000	          0.00000000	          0.00000000	          0.00000000	
1.426	        135.09194900	        928.92889400	         21.08668100	          0.82977300	          0.00000000	         -0.31266700	          0.00000000	          0.00000000	          0.00000000	          0.00000000	          0.00000000	          0.00000000	          0.00000000	         -1.09502300	          0.00000000	          0.00000000	          0.00000000	          0.00000000	
1.427	        136.11914100	        910.71350100	         21.49079900	          0.82752000	          0.00000000	         -0.31282700	          0.00000000	          0.00000000	          0.00000000	          0.00000000	          0.00000000	          0.00000000	          0.00000000	         -1.13587500	          0.00000000	          0.00000000	          0.00000000	          0.00000000	
1.428	        137.01001000	        892.52923600	         21.86416800	          0.82527700	          0.00000000	         -0.31298500	          0.00000000	          0.00000000	          0.00000000	          0.00000000	          0.00000000	          0.00000000	          0.00000000	         -1.17239200	          0.00000000	          0.00000000	          0.00000000	          0.00000000	
1.429	        137.76628100	        874.38403300	         22.20684100	          0.82304500	          0.00000000	         -0.31314200	          0.00000000	          0.00000000	          0.00000000	          0.00000000	          0.00000000	          0.00000000	          0.00000000	         -1.20448800	          0.00000000	          0.00000000	          0.00000000	          0.00000000	
1.43	        138.38955700	        856.28552200	         22.51899100	          0.82082500	          0.00000000	         -0.31329600	          0.00000000	          0.00000000	          0.00000000	          0.00000000	          0.00000000	          0.00000000	          0.00000000	         -1.23209800	          0.00000000	          0.00000000	          0.00000000	          0.00000000	
1.431	        138.88116500	        838.24127200	         22.80089200	          0.81861600	          0.00000000	         -0.31344600	          0.00000000	          0.00000000	          0.00000000	          0.00000000	          0.00000000	          0.00000000	          0.00000000	         -1.25517100	          0.00000000	          0.00000000	          0.00000000	          0.00000000	
1.432	        139.24226400	        820.25854500	         23.05290200	          0.81642100	          0.00000000	         -0.31359300	          0.00000000	          0.00000000	          0.00000000	          0.00000000	          0.00000000	          0.00000000	          0.00000000	         -1.27367600	          0.00000000	          0.00000000	          0.00000000	          0.00000000	
1.433	        139.47378500	        802.34466600	         23.27544600	          0.81424000	          0.00000000	         -0.31373500	          0.00000000	          0.00000000	          0.00000000	          0.00000000	          0.00000000	          0.00000000	          0.00000000	         -1.28759500	          0.00000000	          0.00000000	          0.00000000	          0.00000000	
1.434	        139.57644700	        784.50683600	         23.46899400	          0.81207300	          0.00000000	         -0.31387200	          0.00000000	          0.00000000	          0.00000000	          0.00000000	          0.00000000	          0.00000000	          0.00000000	         -1.29693000	          0.00000000	          0.00000000	          0.00000000	          0.00000000	
